<?xml version="1.0" standalone="no"?>
<!DOCTYPE svg PUBLIC "-//W3C//DTD SVG 20010904//EN"
 "http://www.w3.org/TR/2001/REC-SVG-20010904/DTD/svg10.dtd">
<svg version="1.0" xmlns="http://www.w3.org/2000/svg"
 width="700.000000pt" height="700.000000pt" viewBox="0 0 700.000000 700.000000"
 preserveAspectRatio="xMidYMid meet">
<metadata>
Created by potrace 1.11, written by Peter Selinger 2001-2013
</metadata>
<g transform="translate(0.000000,700.000000) scale(0.100000,-0.100000)"
fill="#000000" stroke="none">
<path d="M3347 6983 c-1 -1 -47 -4 -102 -7 -55 -4 -111 -9 -125 -11 -14 -3
-46 -7 -73 -10 -26 -2 -73 -9 -105 -14 -31 -6 -73 -13 -92 -16 -86 -14 -256
-57 -379 -95 -993 -306 -1800 -1045 -2197 -2012 -93 -226 -182 -536 -209 -728
-3 -25 -8 -52 -10 -60 -2 -8 -7 -41 -10 -73 -4 -32 -8 -66 -10 -77 -23 -119
-23 -568 -1 -750 2 -14 6 -50 10 -80 84 -669 374 -1316 821 -1830 403 -462
908 -807 1480 -1010 91 -32 115 -39 285 -85 104 -28 326 -71 417 -81 31 -3 64
-7 73 -9 120 -23 610 -23 760 0 14 2 48 7 75 10 70 8 103 13 245 41 614 122
1214 431 1669 859 90 85 107 102 186 186 106 113 192 219 285 349 135 190 281
449 365 650 15 36 34 79 41 97 29 65 105 306 133 420 29 117 63 296 77 403 3
30 8 63 10 73 16 90 22 446 10 632 -10 149 -42 362 -77 515 -84 370 -217 700
-412 1025 -368 615 -921 1101 -1592 1401 -260 116 -650 225 -930 258 -22 3
-56 7 -75 10 -109 14 -534 29 -543 19z m-99 -3601 l-3 -1037 -34 85 c-18 47
-42 103 -51 125 -10 22 -56 135 -103 250 -147 365 -566 1396 -612 1505 -24 58
-82 202 -130 320 -47 118 -90 224 -95 235 -10 22 -238 582 -340 835 -34 85
-71 174 -81 197 -11 23 -19 46 -19 50 0 11 155 111 284 182 256 141 618 271
876 315 70 11 182 27 240 34 l65 7 3 -1032 c1 -568 1 -1500 0 -2071z m672
3082 c58 -8 116 -17 130 -19 137 -20 467 -118 603 -179 217 -97 354 -170 502
-270 93 -62 195 -137 230 -170 11 -10 30 -25 43 -33 12 -9 22 -18 22 -22 0 -4
-30 -43 -66 -87 -36 -43 -80 -97 -98 -119 -19 -22 -118 -141 -221 -265 -102
-124 -199 -240 -213 -259 -15 -19 -32 -39 -37 -45 -6 -6 -76 -90 -155 -186
-151 -183 -314 -379 -535 -645 -22 -26 -49 -59 -60 -73 -11 -13 -54 -66 -96
-116 -41 -50 -110 -133 -152 -184 l-77 -93 0 73 c-1 86 -1 2650 0 2691 0 31
-20 31 180 1z m1937 -1116 c305 -379 522 -877 602 -1383 48 -303 47 -652 -5
-955 -21 -123 -24 -141 -34 -180 -5 -19 -11 -47 -14 -61 -10 -58 -99 -329
-136 -414 -91 -209 -178 -368 -288 -530 -84 -123 -218 -295 -230 -295 -5 0
-138 195 -297 433 -160 237 -292 434 -295 437 -3 3 -191 283 -418 622 l-413
618 58 72 c32 40 60 75 63 78 3 3 82 97 175 210 93 113 183 221 199 240 29 34
43 50 119 144 29 35 132 159 238 286 66 79 253 305 287 348 19 22 41 50 50 60
10 11 75 90 146 176 71 86 132 156 136 156 3 0 29 -28 57 -62z m-4767 -1849
l0 -1782 -27 39 c-172 251 -288 470 -376 714 -40 110 -82 248 -92 298 -1 9 -8
37 -15 60 -13 49 -37 184 -45 252 -3 25 -8 54 -10 65 -28 137 -23 562 9 775
22 142 25 156 52 270 87 368 222 671 459 1029 22 33 41 60 43 61 1 0 2 -802 2
-1781z m644 1256 c81 -198 150 -369 155 -380 5 -11 29 -69 54 -130 24 -60 88
-218 142 -350 54 -132 133 -328 177 -435 43 -107 106 -262 140 -345 33 -82 66
-163 73 -180 7 -16 57 -138 110 -270 53 -132 103 -253 110 -270 8 -16 58 -140
113 -275 55 -135 176 -435 271 -667 l171 -422 0 -254 c-1 -140 -3 -257 -6
-259 -2 -3 -30 -1 -62 3 -31 4 -79 10 -107 14 -27 3 -57 8 -65 10 -8 2 -32 6
-53 10 -140 20 -421 100 -562 160 -293 123 -535 263 -747 431 l-66 53 0 1961
c0 1079 1 1960 3 1958 2 -2 69 -165 149 -363z m2546 -1922 c151 -225 402 -599
559 -833 156 -234 345 -514 418 -624 74 -109 133 -199 131 -200 -2 -1 -25 -20
-53 -43 -76 -61 -258 -182 -372 -247 -276 -156 -650 -289 -943 -336 -41 -7
-83 -14 -92 -16 -9 -1 -48 -6 -85 -9 -37 -4 -76 -9 -85 -11 -16 -2 -18 7 -18
79 -1 45 -1 589 -1 1210 l0 1127 98 118 c54 64 111 134 127 155 16 20 32 37
36 37 4 0 130 -183 280 -407z"/>
</g>
</svg>
